<svg xmlns="http://www.w3.org/2000/svg" width="138" height="108" viewBox="0 0 138 108" version="1.1">
	<path d="M 47.638 18 C 47.340 19.375, 45.973 27.475, 44.600 36 C 43.226 44.525, 40.250 62.881, 37.986 76.791 C 35.722 90.701, 34.011 102.704, 34.185 103.464 C 34.374 104.297, 39.163 100.508, 46.216 93.946 L 57.931 83.044 75.216 89.109 C 84.722 92.445, 96.869 96.710, 102.208 98.587 C 113.214 102.456, 113.704 102.554, 112.036 100.544 C 111.372 99.743, 111.125 98.607, 111.488 98.019 C 111.851 97.431, 111.692 97.074, 111.134 97.225 C 110.575 97.376, 98.799 82.425, 84.964 64 C 71.128 45.575, 58.645 28.960, 57.223 27.079 C 55.801 25.197, 55.159 23.980, 55.796 24.374 C 56.433 24.768, 68.931 41.045, 83.569 60.545 C 98.207 80.045, 110.406 96, 110.679 96 C 111.677 96, 109.762 87.428, 108.222 85 C 107.350 83.625, 104.004 79.125, 100.788 75 C 97.572 70.875, 94.063 66.375, 92.991 65 C 88.084 58.709, 78.262 45.977, 76 42.976 C 69.615 34.507, 61.697 26, 60.199 26 C 59.875 26, 58.278 24.762, 56.650 23.250 C 55.022 21.738, 54.030 21.175, 54.445 22 C 54.860 22.825, 53.620 21.700, 51.689 19.500 C 48.196 15.520, 48.176 15.512, 47.638 18 M 59.535 50.048 L 63.241 55.097 62.030 61.254 C 61.363 64.641, 60.072 68.019, 59.159 68.761 C 57.725 69.927, 57.818 69.956, 59.843 68.970 C 61.673 68.080, 63.689 68.198, 69.048 69.512 C 74.861 70.936, 76.328 71.752, 78.645 74.847 C 81.887 79.178, 87 84.636, 87 83.766 C 87 83.429, 83.058 78.281, 78.239 72.327 C 73.421 66.372, 66.615 57.788, 63.114 53.250 C 56.170 44.248, 53.571 41.923, 59.535 50.048" stroke="none" fill="#9f0712" fill-rule="evenodd"/>
</svg>