<svg xmlns="http://www.w3.org/2000/svg" width="311" height="342" viewBox="0 0 311 342" version="1.1">
	<path d="M 104.994 32.934 C 89.414 37.673, 81.651 54.931, 88.544 69.502 C 90.029 72.641, 93.274 76.883, 96.337 79.690 C 99.224 82.336, 115.044 96.875, 131.492 112 C 147.941 127.125, 168.397 145.912, 176.949 153.750 C 185.502 161.587, 192.500 168.450, 192.500 169 C 192.500 169.550, 185.502 176.413, 176.949 184.250 C 168.397 192.088, 147.941 210.875, 131.492 226 C 115.044 241.125, 99.175 255.709, 96.229 258.408 C 93.284 261.108, 89.715 265.603, 88.299 268.397 C 82.160 280.511, 87.283 297.022, 99.040 303.020 C 108.348 307.769, 118.081 307.462, 125.855 302.176 C 128.019 300.704, 147.725 283.046, 169.645 262.936 C 259.151 180.819, 255.345 184.523, 257.852 177.101 C 260.380 169.617, 258.914 160.552, 254.102 153.907 C 252.671 151.930, 242.050 141.609, 230.500 130.971 C 175.222 80.057, 129.478 38.328, 126.679 36.263 C 121.388 32.360, 111.748 30.880, 104.994 32.934" stroke="none" fill="#ffffff" fill-rule="evenodd"/>
</svg>