<svg width="218" height="250" viewBox="0 0 218 250" fill="none" xmlns="http://www.w3.org/2000/svg">
<path d="M25.7732 49.5286C25.7732 41.1175 32.5917 34.299 41.0028 34.299H202.671C211.082 34.299 217.901 41.1175 217.901 49.5286V199.482C217.901 207.893 211.082 214.712 202.671 214.712H41.0028C32.5917 214.712 25.7732 207.893 25.7732 199.482V49.5286Z" fill="#0A0A0A"/>
<path d="M46.3629 21.6979C48.1124 28.0381 54.4753 34.2989 59.1614 34.2989L29.376 83.5024C26.0567 76.2781 23.1959 43.2849 29.2877 23.6035C36.9025 -0.998187 49.2917 -1.73231 48.1202 1.19646C46.9487 4.12524 43.9316 12.8866 46.3629 21.6979Z" fill="#0A0A0A"/>
<path d="M196.726 21.8712C194.101 28.4178 188.613 34.4722 183.927 34.4722L214.298 83.5024C217.617 76.2781 220.478 43.2849 214.386 23.6035C206.772 -0.998187 193.797 -1.559 194.969 1.36978C196.14 4.29855 200.328 12.8866 196.726 21.8712Z" fill="#0A0A0A"/>
<path d="M29.2878 185.272C24.4065 186.834 16.1669 196.519 15.2297 208.702C14.2924 220.886 20.3062 230.57 24.016 235.061" stroke="black" stroke-width="8"/>
<path d="M27.4268 237.853C27.017 239.518 25.297 240.502 23.654 240.01L11.545 236.388C9.01839 235.632 8.62616 232.219 10.9155 230.91L26.0449 222.259C28.3342 220.95 31.0773 223.019 30.4471 225.58L27.4268 237.853Z" fill="black"/>
</svg>
