<svg width="240" height="245" viewBox="0 0 240 245" fill="none" xmlns="http://www.w3.org/2000/svg">
<path d="M0.773175 49.5286C0.773175 41.1175 7.59172 34.299 16.0028 34.299H177.671C186.082 34.299 192.901 41.1175 192.901 49.5286V199.482C192.901 207.893 186.082 214.712 177.671 214.712H16.0028C7.59171 214.712 0.773175 207.893 0.773175 199.482V49.5286Z" fill="#0A0A0A"/>
<path d="M21.3629 21.6979C23.1124 28.0381 29.4753 34.2989 34.1614 34.2989L4.37597 83.5024C1.05669 76.2781 -1.80415 43.2849 4.28771 23.6035C11.9025 -0.998187 24.2917 -1.73231 23.1202 1.19646C21.9487 4.12524 18.9316 12.8866 21.3629 21.6979Z" fill="#0A0A0A"/>
<path d="M171.726 21.8712C169.101 28.4178 163.613 34.4722 158.927 34.4722L189.298 83.5024C192.617 76.2781 195.478 43.2849 189.386 23.6035C181.772 -0.998187 168.797 -1.559 169.969 1.36978C171.14 4.29855 175.328 12.8866 171.726 21.8712Z" fill="#0A0A0A"/>
<path d="M188.143 180.162C193.251 179.746 204.56 185.559 210.07 196.466C215.58 207.373 213.711 218.619 211.993 224.184" stroke="black" stroke-width="8"/>
<path d="M209.904 228.065C210.917 229.449 212.882 229.702 214.214 228.622L224.029 220.658C226.077 218.996 225.138 215.691 222.523 215.353L205.238 213.121C202.623 212.784 200.875 215.743 202.434 217.87L209.904 228.065Z" fill="black"/>
</svg>
