<svg width="198" height="261" viewBox="0 0 198 261" fill="none" xmlns="http://www.w3.org/2000/svg">
<path d="M0.773175 49.5286C0.773175 41.1175 7.59172 34.299 16.0028 34.299H177.671C186.082 34.299 192.901 41.1175 192.901 49.5286V199.482C192.901 207.893 186.082 214.712 177.671 214.712H16.0028C7.59171 214.712 0.773175 207.893 0.773175 199.482V49.5286Z" fill="#0A0A0A"/>
<path d="M21.3629 21.6979C23.1124 28.0381 29.4753 34.2989 34.1614 34.2989L4.37597 83.5024C1.05669 76.2781 -1.80415 43.2849 4.28771 23.6035C11.9025 -0.998187 24.2917 -1.73231 23.1202 1.19646C21.9487 4.12524 18.9316 12.8866 21.3629 21.6979Z" fill="#0A0A0A"/>
<path d="M171.726 21.8712C169.101 28.4178 163.613 34.4722 158.927 34.4722L189.298 83.5024C192.617 76.2781 195.478 43.2849 189.386 23.6035C181.772 -0.998187 168.797 -1.559 169.969 1.36978C171.14 4.29855 175.328 12.8866 171.726 21.8712Z" fill="#0A0A0A"/>
<path d="M179.404 198.454C181.116 203.285 178.397 215.706 169.268 223.828C160.138 231.951 148.789 233.028 142.969 232.794" stroke="black" stroke-width="8"/>
<path d="M138.682 231.77C137.605 233.104 137.863 235.068 139.249 236.078L149.463 243.523C151.595 245.076 154.549 243.322 154.205 240.707L151.93 223.428C151.586 220.813 148.278 219.883 146.621 221.935L138.682 231.77Z" fill="black"/>
</svg>
