<?xml version="1.0" standalone="no"?>
<!DOCTYPE svg PUBLIC "-//W3C//DTD SVG 20010904//EN"
 "http://www.w3.org/TR/2001/REC-SVG-20010904/DTD/svg10.dtd">
<svg version="1.0" xmlns="http://www.w3.org/2000/svg"
 width="1954.000000pt" height="554.000000pt" viewBox="0 0 1954.000000 554.000000"
 preserveAspectRatio="xMidYMid meet">

<g transform="translate(0.000000,554.000000) scale(0.100000,-0.100000)"
fill="#000000" stroke="none">
<path d="M17877 5473 c-74 -166 -129 -453 -157 -815 -18 -235 -40 -298 -102
-298 -43 0 -79 22 -139 88 -60 64 -118 167 -143 251 -22 74 -20 205 4 321 33
160 29 167 -66 120 -84 -41 -214 -168 -283 -275 -73 -113 -105 -220 -99 -328
6 -115 39 -173 188 -331 129 -136 164 -194 163 -266 -2 -167 -240 -335 -424
-300 -65 13 -102 33 -162 89 -98 90 -190 263 -216 405 -6 33 -11 120 -11 193
0 101 -3 133 -13 133 -43 0 -161 -151 -227 -293 -58 -124 -84 -232 -84 -357 0
-168 19 -216 161 -416 44 -61 92 -140 108 -175 57 -126 30 -255 -74 -359 -67
-66 -111 -85 -201 -85 -62 0 -85 5 -135 29 -88 43 -201 161 -251 261 l-39 79
-5 175 c-5 153 -9 181 -27 216 -49 94 -169 170 -332 211 -99 26 -242 36 -294
21 -39 -11 -27 -23 85 -89 108 -63 179 -136 198 -202 55 -199 -167 -460 -446
-522 -182 -40 -437 16 -556 124 -69 63 -87 128 -49 186 11 16 74 81 140 145
132 127 159 171 186 298 19 86 18 142 0 221 -20 83 -44 128 -96 180 -57 56
-126 80 -279 98 -205 24 -276 59 -327 162 -27 56 -28 61 -26 210 1 104 -1 152
-9 152 -45 0 -127 -94 -180 -206 -31 -64 -33 -76 -33 -174 0 -135 14 -166 146
-305 112 -119 129 -147 129 -205 0 -93 -81 -185 -224 -256 -166 -82 -339 -93
-464 -30 -102 52 -197 189 -244 353 -29 101 -30 245 -4 406 22 131 18 150 -30
155 -67 8 -198 -58 -340 -172 -244 -196 -387 -449 -355 -629 16 -90 55 -150
156 -241 140 -126 192 -182 220 -239 107 -220 -62 -559 -318 -639 -148 -46
-348 6 -464 121 -68 67 -88 111 -87 191 0 53 8 81 39 150 49 108 56 171 25
234 -42 89 -158 166 -260 174 -50 3 -57 1 -80 -23 -24 -26 -25 -31 -25 -173 0
-98 -5 -157 -14 -179 -37 -90 -193 -59 -324 66 -127 120 -143 219 -73 444 14
44 14 48 -1 54 -47 18 -213 -114 -291 -232 -62 -92 -86 -160 -86 -250 -1 -60
4 -80 31 -135 18 -36 60 -99 93 -140 89 -110 105 -149 105 -245 0 -69 -4 -88
-30 -139 -56 -111 -188 -223 -330 -280 -37 -15 -110 -34 -162 -43 -286 -48
-636 92 -636 255 0 62 30 107 162 246 132 139 186 213 223 305 19 48 22 75 22
186 0 122 -2 135 -31 213 -40 104 -104 200 -185 278 -163 157 -348 219 -348
116 0 -14 28 -106 61 -206 88 -260 89 -343 4 -396 -107 -66 -312 -37 -379 53
-35 48 -27 111 37 272 69 172 86 257 69 347 -24 130 -132 297 -265 411 -31 26
-112 80 -179 119 -156 90 -195 117 -251 173 -90 89 -112 183 -82 347 22 125
15 142 -56 136 -100 -10 -267 -114 -385 -240 -77 -83 -114 -155 -114 -222 0
-90 36 -126 217 -221 114 -59 166 -109 207 -194 30 -63 31 -71 31 -196 0 -120
-3 -137 -31 -218 -43 -119 -87 -189 -169 -272 -76 -76 -133 -109 -219 -127
-246 -52 -598 236 -666 543 -17 76 -8 200 19 270 12 31 46 97 76 147 76 124
75 128 -26 87 -139 -56 -358 -235 -454 -370 -88 -124 -145 -277 -145 -390 0
-90 36 -202 121 -375 101 -204 119 -256 119 -335 0 -83 -33 -148 -115 -222
-140 -129 -374 -201 -518 -159 -114 33 -171 120 -171 261 -1 102 33 181 97
223 38 25 48 27 156 28 149 1 141 -1 141 33 0 67 -111 177 -203 202 -49 13
-124 6 -164 -14 -48 -26 -120 -95 -213 -207 -110 -134 -149 -165 -204 -165
-96 0 -180 134 -193 306 -11 147 26 255 133 379 73 85 83 106 60 128 -13 14
-35 17 -109 16 -213 -2 -431 -110 -490 -243 -29 -66 -26 -165 12 -334 38 -168
39 -243 7 -369 -61 -242 -195 -427 -373 -515 -70 -35 -84 -38 -177 -41 -121
-5 -194 11 -312 68 -223 107 -380 311 -343 444 16 59 82 121 218 204 245 149
342 289 373 538 20 160 -18 368 -98 526 -74 147 -210 297 -359 398 -206 139
-480 227 -578 187 -70 -30 -51 -76 132 -322 169 -228 229 -358 218 -475 -10
-118 -99 -222 -252 -295 -236 -113 -454 -97 -597 46 -134 134 -156 355 -47
473 21 24 57 56 78 71 22 14 42 34 46 43 24 63 -244 105 -437 68 -158 -31
-273 -96 -321 -183 -80 -148 -77 -382 8 -758 54 -238 47 -294 -40 -311 -165
-31 -471 133 -594 317 -86 129 -103 246 -71 508 39 320 20 423 -99 542 -105
105 -257 170 -466 200 -123 17 -265 -2 -265 -36 0 -14 34 -45 140 -127 106
-82 155 -135 187 -205 22 -48 25 -65 21 -133 -6 -111 -47 -190 -148 -292 -101
-102 -183 -142 -285 -142 -132 0 -220 68 -388 301 -145 200 -206 243 -280 194
-243 -160 -298 -1431 -111 -2556 79 -471 145 -626 358 -837 359 -355 926 -540
1876 -613 561 -42 1285 -41 2797 5 1219 37 1412 42 2084 48 708 8 1637 0 2289
-18 1016 -27 2459 -23 3240 10 2273 97 3944 398 5350 962 584 235 957 503
1190 855 218 330 287 740 199 1183 -91 455 -378 904 -488 763 -31 -39 -47
-105 -81 -338 -34 -239 -58 -342 -100 -425 -84 -166 -238 -180 -436 -41 -180
126 -292 317 -282 478 6 113 38 166 231 389 81 93 130 177 165 282 23 68 26
94 26 222 1 129 -2 151 -22 202 -28 68 -90 136 -152 164 -25 12 -85 31 -134
43 -49 12 -103 29 -120 38 -160 83 -232 273 -206 551 6 63 9 117 7 119 -2 2
-16 -23 -30 -54z"/>
</g>
</svg>
