<svg width="1280" height="290" viewBox="0 0 1280 290" fill="none" xmlns="http://www.w3.org/2000/svg">
<path d="M35 143.029C13.8 155.429 2.83333 137.863 0 127.529V289.029H1279.5C1279 281.363 1278.3 262.729 1279.5 249.529C1281 233.029 1274 220 1263.5 209.5C1259.5 205.5 1262.34 196.036 1258 202.529C1250 214.5 1266.5 220.529 1258 230.529C1249.5 240.529 1226 225.529 1236.5 212.529C1247 199.529 1256 183.029 1253.5 164.529C1251 146.029 1233 138.029 1226 134.529C1219 131.029 1215 131.529 1212.5 120.529C1210 109.529 1225 104.029 1219 103.029C1213 102.029 1188 120.529 1194.5 131.529C1201 142.529 1203.5 165.029 1194.5 170.029C1185.5 175.029 1165 185.529 1154 159.529C1143 133.529 1170 118.029 1183 108.029C1196 98.0294 1193.5 69.0294 1186 57.5294C1178.5 46.0294 1164 41.5294 1154 38.5294C1144 35.5294 1137.5 27.5294 1134 20.5294C1130.5 13.5294 1137.5 -4.47062 1134 1.02938C1127.5 9.02938 1122 16.0294 1120.5 24.5294C1119 33.0294 1133.5 52.0294 1137.5 57.5294C1141.5 63.0294 1139 82.5294 1118 82.5294C1097 82.5294 1096.5 61.0294 1098 52.0294C1099.5 43.0294 1104 38.5294 1100.5 38.5294C1085 42.5294 1069.5 66.0294 1069.5 82.5294C1069.5 99.0294 1088.5 101.529 1093.5 120.529C1098.5 139.529 1068.5 147.529 1052 134.529C1035.5 121.529 1037.5 97.0294 1040 92.5294C1042.5 88.0294 1042.5 82.5294 1037.5 87.0294C1019 103.029 1010.5 131.529 1022 142.029C1033.5 152.529 1048.5 169.029 1045 185.529C1041.5 202.029 1018.5 209.529 1001 202.529C983.5 195.529 990 175.529 989.5 165.029C988.405 142.029 978 134.529 961 131.529C944.448 128.608 930 136.029 936.5 138.029C961 134.529 964.5 158.5 954.5 175.529C947.534 187.392 921.5 189.029 910 185.529C898.5 182.029 894 171.029 897.5 162.529C901 154.029 917.5 147.529 921.5 131.529C925.5 115.529 911.5 102.529 902.5 101.529C893.5 100.529 878 104.029 873 90.5294C868 77.0294 875.5 68.0294 873 66.0294C870.5 64.0294 851.5 85.0294 855.5 97.0294C859.5 109.029 864 105.029 873 120.529C882 136.029 852 148.029 839 147.529C826 147.029 815 132.529 811.5 114.529C808 96.5294 820 81.5294 809 85.0294C771.5 97.0294 761.5 129.529 765.5 142.029C769.5 154.529 779 152.529 789 169.029C799 185.529 786 202.529 775 209.529C764 216.529 739.5 212.529 735 202.529C730.5 192.529 735 191.529 739.5 175.529C744 159.529 710.5 150.529 714 156.029C717.5 161.529 719 169.029 714 177.529C709 186.029 692 179.029 686 166.529C680 154.029 689 144.529 686 142.029C683 139.529 668.5 152.529 662.5 169.029C656.5 185.529 674 194.529 677.5 209.529C681 224.529 658 237.529 644.5 240.029C631 242.529 609 233.529 605.5 228.529C602 223.529 603 215.029 617 202.529C631 190.029 630.5 172.029 623 152.529C615.5 133.029 593.5 125.529 590.5 129.529C587.5 133.529 612 145.5 598.5 166.529C593.361 174.535 574.5 179.029 569.5 166.529C564.5 154.029 580 141.529 581 129.529C582 117.529 562.5 102.029 541.5 91.5294C520.5 81.0294 504 73.5 514.5 57C519.6 48.9852 529 53.0294 524.5 49.5294C517.5 46.5294 502 53 496.5 59C491 65 489 80.5 496.5 87C508.668 97.5452 515.5 100.529 519.5 118.029C523.5 135.529 509 157.029 489 160.529C469 164.029 448.5 140.029 447 121.029C445.5 102.029 459 94.5294 457 91.5294C453 88.0294 414.5 112.529 411.5 136.529C408.5 160.529 425.5 172.529 429 191.529C432.5 210.529 397.5 221.029 385 213.029C372.5 205.029 373.62 190.839 382 184C390 177.471 397 181.029 402.5 179.029C408 177.029 397.017 169.085 390.5 166.529C381.5 163 368 166.529 361 175.5C355.083 183.082 344.994 184.656 340.5 182C329.5 175.5 324.5 163.029 329 154C333.5 144.971 342.5 142.5 348.5 140C354.928 137.321 327 132 316.5 142.5C306 153 306.5 168.529 311.5 198.529C316.5 228.529 301.896 240.5 281.5 240.5C263 240.5 237 230 237 209.5C237 186.5 257.111 189.828 266 172.529C284.5 136.529 266 112.5 256 100.5C241.525 83.1299 210 72.5294 201 77.0294C192 81.5294 227.5 81.46 227.5 127.529C227.5 159.282 171.5 171 160.5 140C153.393 119.971 170.5 113 176 108.029C184.459 100.385 140.5 101.029 131.5 127.529C122.5 154.029 151 184.029 124 192.029C97 200.029 84 171.529 82 159.029C80 146.529 97.5 103.529 70.5 88.5294C43.5 73.5294 19 83.0294 35 88.5294C51 94.0294 61.5 127.529 35 143.029Z" fill="black"/>
</svg>
