<svg xmlns="http://www.w3.org/2000/svg" width="980" height="980" viewBox="0 0 980 980" version="1.1">
	<path d="M 466.500 135.599 C 438.067 138.447, 422.835 140.820, 405.500 145.103 C 339.387 161.438, 283.720 192.960, 235.453 241.394 C 211.137 265.795, 194.131 287.933, 177 317.488 C 125.516 406.310, 114.909 518.722, 148.696 617.452 C 174.465 692.752, 223.982 757.187, 290.503 801.978 C 315.790 819.004, 356.910 839.172, 376.292 844.052 C 385.720 846.426, 394.479 843.039, 398.413 835.500 C 400.437 831.620, 400.489 830.416, 400.146 795.500 C 399.951 775.700, 399.726 759.433, 399.646 759.351 C 399.566 759.269, 396.350 759.858, 392.500 760.660 C 388.626 761.467, 377.015 762.359, 366.500 762.657 C 350.079 763.123, 346.209 762.929, 337.987 761.226 C 318.700 757.232, 304.309 749.473, 292.259 736.570 C 285.363 729.186, 283.311 725.682, 273.642 704.766 C 265.267 686.651, 253.505 672.171, 240.232 663.634 C 236.529 661.253, 231.565 657.361, 229.199 654.984 C 225.711 651.480, 224.955 650.081, 225.199 647.582 C 225.694 642.508, 230.343 640.770, 242 641.302 C 263.246 642.271, 280.787 654.251, 297.194 679 C 313.363 703.389, 329.233 714.358, 352.283 717.076 C 364.346 718.499, 378.291 716.633, 392 711.762 L 401.500 708.387 403.056 700.943 C 406.348 685.197, 411.433 674.094, 420.050 663.841 L 423.965 659.183 418.732 658.537 C 406.112 656.979, 383.583 652.512, 373 649.470 C 343.300 640.931, 321.409 628.422, 303.171 609.569 C 280.223 585.847, 267.097 555.171, 261.852 513 C 259.911 497.393, 260.188 464.752, 262.361 453 C 266.655 429.780, 277.085 406.899, 291.629 388.793 L 297.016 382.087 294.611 373.787 C 287.720 350.007, 288.911 320.263, 297.811 293.860 L 300.629 285.500 307.385 285.203 C 326.600 284.357, 356.044 295.297, 387.383 314.927 L 400.242 322.981 407.871 321.054 C 419.280 318.173, 434.824 315.362, 450.500 313.346 C 469.873 310.854, 510.862 310.861, 530.500 313.360 C 543.751 315.047, 569.512 319.821, 576.890 321.959 C 580.088 322.885, 581.017 322.482, 593.390 314.789 C 623.778 295.896, 652.537 285, 672.014 285 L 679.112 285 681.154 289.615 C 684.573 297.344, 688.779 315.915, 690.016 328.746 C 691.362 342.704, 690.261 357.175, 686.838 370.500 C 685.708 374.900, 684.586 379.400, 684.343 380.500 C 684.054 381.814, 685.346 384.216, 688.106 387.500 C 703.452 405.760, 713.836 428.569, 718.153 453.500 C 719.989 464.106, 720.171 468.229, 719.718 489 C 719.174 513.947, 717.541 526.780, 712.488 545.810 C 703.297 580.421, 683.881 608.633, 656.811 626.709 C 631.741 643.450, 603.384 652.831, 560.729 658.495 L 555.958 659.129 560.496 664.314 C 568.157 673.069, 574.778 687.724, 578.199 703.500 C 579.187 708.057, 579.501 724.173, 579.502 770.500 C 579.504 829.478, 579.571 831.632, 581.502 835.487 C 585.208 842.882, 594.276 846.427, 603.527 844.097 C 610.552 842.328, 630.210 834.407, 644.500 827.587 C 706.073 798.201, 758.757 751.022, 795.908 692 C 805.436 676.863, 821.638 643.917, 827.873 627 C 849.608 568.031, 855.911 507.605, 846.910 444.500 C 836.689 372.838, 803.218 302.954, 753.970 250.449 C 694.013 186.527, 618.952 148.286, 532 137.365 C 521.062 135.991, 474.988 134.749, 466.500 135.599" stroke="none" fill="#efb010" fill-rule="evenodd"/>
</svg>