<svg xmlns="http://www.w3.org/2000/svg" width="800" height="600" viewBox="0 0 800 600" version="1.1">
	<path d="M 199.195 143.067 C 188.649 145.143, 179.661 152.706, 176.304 162.329 C 174.599 167.216, 174.500 175.094, 174.500 306 L 174.500 444.500 176.661 449.176 C 179.720 455.795, 186.168 462.379, 192.273 465.119 C 196.930 467.208, 199.001 467.466, 211.255 467.482 L 225.009 467.500 225.024 346.150 C 225.035 248.130, 225.284 224.895, 226.315 225.291 C 227.017 225.560, 265.596 251.792, 312.046 283.585 C 358.496 315.377, 397.175 341.387, 398 341.385 C 399.238 341.383, 470.314 293.192, 550.759 237.812 C 560.252 231.277, 568.687 225.673, 569.505 225.360 C 570.816 224.857, 570.991 239.166, 570.983 346.145 L 570.974 467.500 584.237 467.500 C 594.914 467.500, 598.469 467.126, 602.472 465.583 C 609.004 463.064, 616.206 456.208, 619.142 449.714 L 621.500 444.500 621.500 305 L 621.500 165.500 619.363 160.878 C 614.963 151.362, 605.608 144.200, 595.577 142.669 C 591.716 142.079, 590.142 143.104, 495.584 207.785 C 442.745 243.928, 398.827 273.500, 397.988 273.500 C 397.150 273.500, 353.196 243.913, 300.312 207.750 C 247.429 171.587, 204.012 142.049, 203.831 142.110 C 203.649 142.170, 201.563 142.601, 199.195 143.067" stroke="none" fill="#000000" fill-rule="evenodd"/>
</svg>