<svg width="184" height="98" viewBox="0 0 184 98" fill="none" xmlns="http://www.w3.org/2000/svg">
<path d="M59.2366 13.0319C59.2366 16.2138 59.4773 18.2344 59.7469 19.4311C59.9456 20.3131 60.8285 20.5389 61.602 20.0709C65.7079 17.5865 71.4571 13.6342 69.1967 13.0319C62.9061 11.9894 61.8577 0 60.8092 0C59.7608 0 59.2366 6.25532 59.2366 13.0319Z" fill="white"/>
<path d="M96.9658 13.0319C96.9658 16.2138 96.725 18.2344 96.4555 19.4311C96.2568 20.3131 95.3739 20.5389 94.6004 20.0709C90.4945 17.5865 84.7453 13.6342 87.0057 13.0319C93.2963 11.9894 94.3447 0 95.3932 0C96.4416 0 96.9658 6.25532 96.9658 13.0319Z" fill="white"/>
<path d="M11.1054 12.5106H2C0.895431 12.5106 0 13.4061 0 14.5106V95.4787C0 96.5833 0.895431 97.4787 2 97.4787H11.1054C12.21 97.4787 13.1054 96.5833 13.1054 95.4787V60.4681H26.735V95.4787C26.735 96.5833 27.6305 97.4787 28.735 97.4787H38.3647C39.4692 97.4787 40.3647 96.5833 40.3647 95.4787V14.5106C40.3647 13.4061 39.4692 12.5106 38.3647 12.5106H28.735C27.6305 12.5106 26.735 13.4061 26.735 14.5106V49H13.1054V14.5106C13.1054 13.4061 12.21 12.5106 11.1054 12.5106Z" fill="white"/>
<path d="M59.2365 95.4787V14.5106C59.2365 13.4061 60.1319 12.5106 61.2365 12.5106H94.9801C96.0846 12.5106 96.9801 13.4061 96.9801 14.5106V19.0266V23.5426C96.9801 24.6471 96.0846 25.5426 94.9801 25.5426H72.3419V49H91.8348C92.9393 49 93.8348 49.8954 93.8348 51V58.4681C93.8348 59.5727 92.9393 60.4681 91.8348 60.4681H72.3419V84.9681H94.9801C96.0846 84.9681 96.9801 85.8635 96.9801 86.9681V95.4787C96.9801 96.5833 96.0846 97.4787 94.9801 97.4787H61.2365C60.1319 97.4787 59.2365 96.5833 59.2365 95.4787Z" fill="white"/>
<path d="M119.077 12.5106H109.234C107.857 12.5106 106.892 13.8707 107.347 15.171L123.079 60.1474C123.153 60.3597 123.191 60.5829 123.191 60.8078V95.4787C123.191 96.5833 124.086 97.4787 125.191 97.4787H134.296C135.401 97.4787 136.296 96.5833 136.296 95.4787V60.8078C136.296 60.5829 136.334 60.3597 136.408 60.1474L152.141 15.171C152.595 13.8707 151.63 12.5106 150.253 12.5106H140.434C139.537 12.5106 138.75 13.1075 138.508 13.9709L130.006 44.3085L120.994 13.9417C120.743 13.0928 119.963 12.5106 119.077 12.5106Z" fill="white"/>
<path d="M181.83 12.5106H168.854C167.691 12.5106 166.774 13.4982 166.859 14.6574L171.283 74.7744C171.359 75.8192 172.229 76.6277 173.277 76.6277H176.915C177.956 76.6277 178.823 75.8285 178.908 74.7906L183.823 14.6736C183.918 13.5087 182.999 12.5106 181.83 12.5106Z" fill="white"/>
<path d="M179.903 84.9681H170.798C169.693 84.9681 168.798 85.8635 168.798 86.9681V96C168.798 97.1046 169.693 98 170.798 98H179.903C181.008 98 181.903 97.1046 181.903 96V86.9681C181.903 85.8635 181.008 84.9681 179.903 84.9681Z" fill="white"/>
</svg>
