<svg xmlns="http://www.w3.org/2000/svg" width="191" height="185" viewBox="0 0 191 185" version="1.1">
	<path d="M 113.571 23.571 C 111.239 25.904, 111.583 30.595, 114.223 32.443 C 116.009 33.695, 119.583 34, 132.455 34 L 148.465 34 109.733 72.780 C 88.430 94.109, 71 112.234, 71 113.057 C 71 116.131, 74.030 119, 77.277 119 C 80.105 119, 84.493 114.952, 118.720 80.767 L 157 42.535 157 58.545 C 157 76.500, 157.733 79, 163 79 C 168.638 79, 169 77.248, 169 49.932 C 169 27.349, 168.849 25.173, 167.171 23.655 C 165.572 22.208, 162.195 22, 140.243 22 C 118.758 22, 114.917 22.226, 113.571 23.571 M 44.821 35.395 C 35.521 37.899, 28.778 45.422, 26.945 55.338 C 26.268 59.004, 25.994 76.396, 26.191 103.295 L 26.500 145.500 29.474 150.870 C 31.110 153.824, 33.835 157.297, 35.528 158.589 C 42.665 164.033, 42.341 164.002, 91.718 163.978 C 142.765 163.954, 141.614 164.096, 148.901 156.872 C 155.583 150.247, 155.954 148.358, 155.978 120.807 C 156 96.411, 155.973 96.095, 153.777 94.557 C 150.728 92.421, 149.315 92.594, 146.455 95.455 L 144 97.909 144 120.550 C 144 145.329, 143.662 146.996, 137.960 150.364 C 135.511 151.811, 130.154 152, 91.546 152 C 44.023 152, 44.280 152.029, 40.398 146.301 C 38.618 143.674, 38.483 140.831, 38.230 100.500 C 37.931 53.023, 37.901 53.286, 44.320 48.571 C 46.936 46.650, 48.877 46.464, 71.108 46 C 97.299 45.454, 97.280 45.458, 96.761 39.523 C 96.322 34.517, 93.939 34.023, 70.500 34.082 C 56.916 34.116, 47.847 34.580, 44.821 35.395" stroke="none" fill="#db9951" fill-rule="evenodd"/>
</svg>