<svg xmlns="http://www.w3.org/2000/svg" width="225" height="225" viewBox="0 0 225 225" version="1.1">
	<path d="M 95.113 25.545 C 85.287 27.676, 79.167 29.866, 71.176 34.109 C 42.716 49.219, 25.670 76.275, 24.268 108.566 C 23.140 134.543, 32.083 157.474, 50.380 175.523 C 84.830 209.506, 140.161 209.405, 174.826 175.297 C 190.674 159.702, 199.582 139.460, 200.700 116.500 C 202.834 72.697, 173.041 34.500, 129.792 25.588 C 120.444 23.662, 103.887 23.641, 95.113 25.545 M 68.418 60.914 C 65.650 62.107, 61.153 67.541, 60.378 70.631 C 58.677 77.406, 62.551 84.803, 69.190 87.459 C 84.651 93.646, 95.918 74.588, 83.603 63.083 C 80.775 60.441, 72.320 59.234, 68.418 60.914 M 132 93.930 C 127.568 94.816, 124.237 96.557, 120.750 99.809 L 118 102.374 118 99.387 C 118 97.744, 117.460 95.860, 116.800 95.200 C 115.355 93.755, 99.224 93.574, 97 94.978 C 95.727 95.782, 95.456 100.845, 95.211 128.455 C 95.014 150.601, 95.270 161.636, 96.014 163.027 C 97.022 164.909, 97.905 165.047, 107.304 164.784 L 117.500 164.500 118 143.500 C 118.535 121.022, 119.163 118.101, 124.217 114.561 C 126.752 112.785, 133.190 112.496, 136.055 114.030 C 140.678 116.504, 141.437 120.213, 141.984 143 L 142.500 164.500 152.352 164.787 C 158.758 164.974, 162.694 164.669, 163.602 163.915 C 164.717 162.990, 165 158.562, 165 142.061 C 165 119.160, 164.066 111.788, 160.277 104.792 C 155.268 95.541, 144.544 91.422, 132 93.930 M 64.571 95.571 C 63.207 96.936, 63 101.452, 63 129.871 C 63 153.994, 63.316 162.916, 64.200 163.800 C 64.958 164.558, 68.756 165, 74.500 165 C 80.244 165, 84.042 164.558, 84.800 163.800 C 85.684 162.916, 86 153.994, 86 129.871 C 86 101.452, 85.793 96.936, 84.429 95.571 C 83.251 94.394, 80.764 94, 74.500 94 C 68.236 94, 65.749 94.394, 64.571 95.571" stroke="none" fill="#efb010" fill-rule="evenodd"/>
</svg>