<svg width="1279" height="231" viewBox="0 0 1279 231" fill="none" xmlns="http://www.w3.org/2000/svg">
<path d="M0 140.376V230.376H1279V47.3762C1257 60.8762 1268.5 84.8762 1272.5 96.8762C1276.5 108.876 1266.5 132.376 1250.5 118.376C1234.5 104.376 1256 80.8762 1241.5 93.3762C1227 105.876 1230 118.376 1241.5 137.376C1253 156.376 1233.5 179.5 1208.5 175.5C1183.5 171.5 1181.5 137.876 1190.5 132.376C1199.5 126.876 1220 112.124 1216.5 89.5C1212.21 61.7587 1167 38.8762 1175 48.3762C1211.5 102.876 1160 107.876 1147 96.8762C1134 85.8762 1145.5 75.3762 1153 39.3762C1160.5 3.37618 1104 -1.62382 1106.5 0.376178C1109 2.37618 1119.5 0.376179 1124.5 26.8762C1129.5 53.3762 1100 61.3762 1085.5 47.3762C1071 33.3762 1097 17.8762 1085.5 20.8762C1074 23.8762 1065.5 32.3762 1062 47.3762C1058.5 62.3762 1079.5 68.3762 1085.5 84.8762C1091.5 101.376 1062.5 116.376 1043 104.376C1023.5 92.3762 1050.5 61.3762 1032 75.3762C1013.5 89.3762 1015 111.376 1026.5 118.376C1038 125.376 1063 158.876 1026.5 164.876C990 170.876 983 148.876 985 137.376C987 125.876 999 106.376 992.5 80.8762C986 55.3762 951.5 52.3762 964.5 61.3762C977.5 70.3762 975.838 84.0523 975 89.5C973 102.5 956.127 113.266 940.5 102.5C913.863 84.1498 933 74.5 936.5 70.5C938.476 68.2423 922.5 68.5 915.5 80.8762C905.157 99.1631 918.875 109.53 926.5 116C943 130 923 145.5 915.5 132.376C907.014 117.527 880 125.5 885.5 130C896.5 126.5 913 158.876 891 158.876C856.258 158.876 891 109 869.5 84.8762C851.944 65.1776 839.427 69.8217 841 72.3762C842.924 75.5 845.487 74.3762 849 87.3762C854 105.876 839.5 120.5 820.5 113C801.5 105.5 811.081 83.9407 812.5 67C814.5 43.1238 773.5 34.2524 765.5 35.5C761.5 36.1238 769.2 36.7 776 47.5C793.5 76.5 774.5 95.3762 763.5 97.3762C752.5 99.3762 747.5 95.3762 747.5 87.3762C747.5 79.3762 747.5 72.3762 741 84.8762C734.5 97.3762 738 111.876 747.5 118.376C757 124.876 781.5 123.376 778 141.876C774.5 160.376 756 158.876 738 141.876C720 124.876 704.228 141.876 708.5 141.876C713.5 141.876 716 141.876 719.5 147.5C728.166 161.425 717.001 174.884 707 175.876C675.5 179 661.5 143.376 675.5 127.876C689.5 112.376 694 111.876 689.5 99.3762C685 86.8762 673.5 86 669 75.5C665.4 67.1 671 67.5 671 65.8762C671 62.8762 661.985 64.75 659.5 71.3762C656.5 79.3762 670.261 87.7211 658 96.3762C649.5 102.376 635.5 96.8102 635.5 87.3762C635.5 76.9563 642.5 79.8762 641 77.3762C639.181 74.3445 622.51 78.2184 621.5 94.8762C620.5 111.376 651.534 124.178 626 143.876C608.5 157.376 585 142.376 588 123.376C594.079 84.8762 613 84.8762 608.5 65.8762C600.393 31.6485 564 34.8762 574 40.3762C584 45.8762 594 69.3762 579 72.3762C564 75.3762 548 69.3762 550 52.8762C551.121 43.6289 560.5 37.8762 564 27.3762C567.5 16.8762 555 9.62679 557 14.1268C559 18.6268 558.5 29.1268 546 36.1268C533.5 43.1268 524.479 57.3642 527 63.3762C533.5 78.8762 543.13 79.1583 548 87.3762C556 100.876 535.5 113.3 515 100.876C498.5 90.8762 515.5 77.8762 515 69.3762C514.6 62.5762 509.167 62.5428 506.5 63.3762C504.5 64.0012 517.5 66.3762 502 74.3762C488.219 81.4889 483 92.3762 496.5 102.376C510 112.376 506.5 136.376 485.5 136.376C466 136.376 455.5 124.876 455.5 112.376C455.5 102.376 465.833 95.2095 472.5 95.3762C468.833 90.7095 455.537 89.0397 444.5 102.376C432.5 116.876 436 123.376 441 141.376C446 159.376 412 157.376 401.5 152.376C391 147.376 381.5 136.376 391.5 126.376C401.5 116.376 403 102.376 394 78.8762C385 55.3762 356 60.3762 352 54.8762C348 49.3762 356 37.8762 349 42.8762C342 47.8762 339.5 57.8762 344.5 65.8762C349.5 73.8762 374 92.3762 356 107.376C338 122.376 316 107.376 312 95.3762C308 83.3762 326 72.3762 320.5 72.3762C304.5 74.8762 291 86.3762 295 104.876C299 123.376 334.5 126.376 320.5 163.876C306.5 201.376 274.5 173 277 159C279.5 145 291 145.5 291 133.376C291 115.912 274 118 263.5 107.376C258.605 102.423 263 95.5 260 98.5C254 102.376 254.736 107.245 263.5 120.5C273.5 135.624 234 140.376 237 126.376C240 112.376 246 112.376 244.5 92.3762C243 72.3762 231.047 77.1588 227 72.3762C221.5 65.8762 228 57.3762 224.5 60.3762C221 63.3762 212.5 70.8762 218.5 81.3762C224.5 91.8762 205.5 105.876 196 90.3762C186.5 74.8762 207.5 63.8762 202.5 65.8762C185 71.3762 177 90.3762 184.5 102.376C192 114.376 193 133.376 180 136.376C167 139.376 146 136.376 143 112.376C140 88.3762 153 102.876 170.5 75.3762C188 47.8762 150.5 37.3762 143 31.3762C135.5 25.3762 146 18.8762 140 20.3762C134 21.8762 135 22.8762 132 27.8762C129 32.8762 144.5 38.3762 135 52.3762C125.5 66.3762 105.5 60.3762 100 45.8762C94.5 31.3762 115 20.8762 115.5 15.8762C116 10.8762 109 -5.12382 109 6.87618C109 18.8762 91 23.3762 86 27.8762C81 32.3762 67.5 48.3762 77.5 60.3762C87.5 72.3762 90.5 81.3762 82 90.3762C73.5 99.3762 64.5 94.8762 61 86.3762C57.5 77.8762 68.5 73.3762 61 75.3762C49 79.8762 30.5 103.376 47.5 115.376C64.5 127.376 61.5 156.376 37 159.876C17.4 162.676 4.16667 148.043 0 140.376Z" fill="#C46827"/>
</svg>
