<svg width="1280" height="263" viewBox="0 0 1280 263" fill="none" xmlns="http://www.w3.org/2000/svg">
<path d="M1244.99 111.8C1266.19 124.063 1277.16 106.691 1280 96.4729L1280 262.5H640H0.000244141C0.500488 254.919 -0.000976562 230.243 -0.000976562 217.116C-0.000976562 207.577 2.29846 203.576 9.79834 192.534C13.0502 187.746 10.4578 177.434 14.7992 183.855C22.8024 195.693 13.6625 194.599 20.8 205.841C26.3009 214.505 44.804 205.841 42.8036 192.534C40.1837 175.105 19.7999 167.655 18.2997 154.927C16.7994 142.198 26.3009 131.784 34.8022 123.684C43.6176 115.285 41.8035 107.484 38.3029 99.3839C36.4996 95.2112 33.8021 94.1767 37.3027 94.1767C43.3656 94.1767 55.8071 112.806 49.3046 123.684C42.802 134.561 55.3035 162.711 64.307 167.655C73.3105 172.6 99.0872 177.022 104.313 154.927C110.858 127.254 83.5316 113.779 70.5265 103.89C57.5214 94.001 60.0223 65.3236 67.5253 53.9515C75.0282 42.5794 84.3077 38.6237 94.3116 35.6571C104.316 32.6904 113.314 27.0417 116.815 20.1196C120.317 13.1974 113.314 -4.4121 116.815 1.02672C123.318 8.93773 125.319 13.3553 126.82 21.7608C130.221 40.8117 114.315 44.4196 108.814 59.4624C99.5377 84.8295 118.045 103.395 139.053 103.395C160.061 103.395 177.325 82.6053 168.823 53.9515C166.279 45.3751 158.322 34.3814 163.323 35.6571C178.829 39.6126 193.327 62.357 193.327 78.6734C193.327 94.9899 189.073 100.267 184.071 119.055C179.069 137.844 197.911 146.354 202.829 147.405C216.331 150.293 248.836 143.939 250.336 126.577C251.837 109.214 243.335 118.477 243.335 110.955C259.838 105.029 270.34 125.773 265.839 140.273C257.706 166.478 239.834 163.489 243.335 179.805C246.837 196.122 270.573 193.022 280.842 176.912C291.823 159.685 289.613 143.939 290.113 133.556C291.208 110.812 301.617 103.395 318.624 100.428C335.182 97.5399 353.129 100.289 340.707 102.806C328.285 105.323 312.338 126.125 318.624 145.221C326.051 167.786 356.351 168.223 367.855 164.762C379.36 161.301 388.753 150.997 382.149 131.084C375.857 112.112 362.141 116.25 358.139 100.428C354.138 84.6063 366.353 67.3942 375.357 66.4053C390.359 64.7575 398.36 54.3187 398.36 47.891C398.36 33.3408 391.359 35.4045 393.86 33.4267C396.361 31.449 407.008 37.4767 409.362 54.4457C411.212 67.7809 397.022 71.0648 395.86 89.5481C393.86 121.37 430.061 124.753 444.367 119.634C456.799 115.186 477.872 100.405 481.373 82.6053C484.875 64.8055 459.679 50.9846 470.683 54.4457C508.198 66.3122 518.202 98.4506 514.2 110.812C510.199 123.173 500.695 121.195 490.691 137.511C480.687 153.828 493.692 170.639 504.697 177.561C515.701 184.483 540.21 180.527 544.712 170.639C549.214 160.75 544.712 159.761 540.211 143.939C535.709 128.117 569.222 119.217 565.72 124.656C562.219 130.095 560.719 137.511 565.72 145.917C570.722 154.322 587.729 147.4 593.731 135.039C599.734 122.678 590.73 113.284 593.731 110.812C596.733 108.339 611.238 121.195 617.241 137.511C623.243 153.828 605.736 162.728 602.235 177.561C598.733 192.394 604.479 208.262 617.241 213.941C630.243 219.727 663.043 217.647 666.403 198.898C668.798 185.531 660.768 171.775 656.756 168.234C642.751 155.873 645.167 137.548 656.756 121.195C674.263 96.491 666.775 119.067 666.403 127.155C664.402 170.639 722.078 165.184 719.411 135.039C716.41 101.12 713.41 91.5078 731.913 69.2981C753.955 42.8403 746.415 37.4767 738.914 29.9553C731.413 22.4339 725.412 24.1287 729.413 22.4339C736.415 19.4672 748.914 26.3363 754.416 32.2696C767.658 46.5486 764.954 66.9368 760.296 87.0785C756.295 104.384 770.8 125.645 790.808 129.106C810.816 132.567 831.324 108.834 832.825 90.0452C834.325 71.2565 820.82 63.84 822.821 60.8734C826.822 57.4123 865.337 81.6397 868.339 105.373C871.34 129.106 854.333 140.972 850.832 159.761C847.33 178.55 882.344 188.933 894.849 181.022C907.354 173.111 906.233 159.079 897.85 152.315C889.847 145.859 882.844 149.378 877.342 147.4C871.84 145.422 882.827 137.566 889.347 135.039C898.35 131.549 911.856 135.039 918.858 143.91C924.777 151.408 934.87 152.964 939.366 150.338C950.371 143.91 955.373 131.578 950.871 122.649C946.369 113.72 937.366 111.277 931.363 108.805C924.932 106.156 952.872 100.894 963.376 111.277C973.88 121.66 973.38 137.017 968.378 166.683C963.376 196.349 977.985 208.187 998.389 208.187C1016.9 208.187 1042.91 197.804 1042.91 177.532C1042.91 154.788 1022.79 158.078 1013.9 140.972C995.388 105.373 1013.9 81.6107 1023.9 69.7442C1038.38 52.5673 1069.92 42.0848 1078.92 46.5347C1087.92 50.9847 1052.41 50.916 1052.41 96.4729C1052.41 127.873 1108.43 139.46 1119.44 108.805C1126.55 88.9982 1109.43 82.1051 1103.93 77.1898C1095.47 69.63 1139.44 70.2677 1148.45 96.4729C1157.45 122.678 1128.94 152.344 1155.95 160.255C1182.96 168.166 1195.97 139.983 1197.97 127.622C1199.97 115.262 1182.46 72.7399 1209.47 57.9067C1236.48 43.0736 1260.99 52.4679 1244.99 57.9067C1228.98 63.3456 1218.48 96.4729 1244.99 111.8Z" fill="#8D2018"/>
</svg>
