<svg width="1279" height="205" viewBox="0 0 1279 205" fill="none" xmlns="http://www.w3.org/2000/svg">
<path d="M1279 124.914V205H0V42.1576C22 54.1706 10.5 75.527 6.5 86.2052C2.5 96.8834 12.5 117.795 28.5 105.337C44.5 92.879 23 71.9676 37.5 83.0907C52 94.2138 49 105.337 37.5 122.244C26 139.151 45.5 159.728 70.5 156.168C95.5 152.609 97.5 122.689 88.5 117.795C79.5 112.901 59 99.7733 62.5 79.6415C66.7917 54.9559 112 34.5939 104 43.0475C67.5 91.5443 119 95.9935 132 86.2052C145 76.4168 133.5 67.0734 126 35.0389C118.5 3.00429 175 -1.44496 172.5 0.334741C170 2.11444 159.5 0.334742 154.5 23.9157C149.5 47.4967 179 54.6155 193.5 42.1576C208 29.6998 182 15.9071 193.5 18.5766C205 21.2462 213.5 28.8099 217 42.1576C220.5 55.5054 199.5 60.8445 193.5 75.527C187.5 90.2095 216.5 103.557 236 92.879C255.5 82.2008 228.5 54.6155 247 67.0734C265.5 79.5313 264 99.108 252.5 105.337C241 111.566 216 141.376 252.5 146.715C289 152.054 296 132.477 294 122.244C292 112.011 280 94.6587 286.5 71.9676C293 49.2764 327.5 46.6069 314.5 54.6155C301.5 62.6242 303.162 74.7939 304 79.6415C306 91.2095 322.873 100.789 338.5 91.2095C365.137 74.8806 346 66.2937 342.5 62.7344C340.524 60.7253 356.5 60.9547 363.5 71.9676C373.843 88.2402 360.125 97.4654 352.5 103.222C336 115.68 356 129.473 363.5 117.795C371.986 104.582 399 111.676 393.5 115.68C382.5 112.566 366 141.376 388 141.376C422.742 141.376 388 96.9935 409.5 75.527C427.056 57.9982 439.573 62.1308 438 64.4039C436.076 67.1836 433.513 66.1836 430 77.7516C425 94.2138 439.5 107.227 458.5 100.553C477.5 93.8791 467.919 74.6945 466.5 59.6199C464.5 38.3737 505.5 30.4794 513.5 31.5896C517.5 32.1447 509.8 32.6575 503 42.2678C485.5 68.0734 504.5 84.8704 515.5 86.6501C526.5 88.4298 531.5 84.8704 531.5 77.7516C531.5 70.6328 531.5 64.4039 538 75.527C544.5 86.6501 541 99.5529 531.5 105.337C522 111.121 497.5 109.786 501 126.248C504.5 142.711 523 141.376 541 126.248C559 111.121 574.772 126.248 570.5 126.248C565.5 126.248 563 126.248 559.5 131.253C550.834 143.644 561.999 155.621 572 156.503C603.5 159.283 617.5 127.583 603.5 113.79C589.5 99.9978 585 99.5529 589.5 88.4298C594 77.3067 605.5 76.527 610 67.1836C613.6 59.7089 608 60.0648 608 58.6198C608 55.9503 617.015 57.6178 619.5 63.514C622.5 70.6328 608.739 78.0586 621 85.7603C629.5 91.0993 643.5 86.1464 643.5 77.7516C643.5 68.4795 636.5 71.0777 638 68.8531C639.819 66.1554 656.49 69.6026 657.5 84.4255C658.5 99.108 627.466 110.5 653 128.028C670.5 140.041 694 126.693 691 109.786C684.921 75.527 666 75.527 670.5 58.6198C678.607 28.1624 715 31.0345 705 35.9287C695 40.8229 685 61.7343 700 64.4039C715 67.0734 731 61.7343 729 47.0518C727.879 38.8231 718.5 33.7041 715 24.3607C711.5 15.0173 724 8.56639 722 12.5707C720 16.575 720.5 25.9184 733 32.1474C745.5 38.3763 754.521 51.0455 752 56.3952C745.5 70.1879 735.87 70.4389 731 77.7516C723 89.7646 743.5 100.82 764 89.7646C780.5 80.8661 763.5 69.298 764 61.7343C764.4 55.6833 769.833 55.6537 772.5 56.3952C774.5 56.9514 761.5 59.0648 777 66.1836C790.781 72.5128 796 82.2008 782.5 91.0993C769 99.9978 772.5 121.354 793.5 121.354C813 121.354 823.5 111.121 823.5 99.9978C823.5 91.0993 813.167 84.7221 806.5 84.8704C810.167 80.7178 823.463 79.2319 834.5 91.0993C846.5 104.002 843 109.786 838 125.803C833 141.821 867 140.041 877.5 135.592C888 131.143 897.5 121.354 887.5 112.456C877.5 103.557 876 91.0993 885 70.1879C894 49.2764 923 53.7257 927 48.8315C931 43.9373 923 33.7041 930 38.1533C937 42.6026 939.5 51.5011 934.5 58.6198C929.5 65.7386 905 82.2008 923 95.5486C941 108.896 963 95.5486 967 84.8704C971 74.1922 953 64.4039 958.5 64.4039C974.5 66.6285 988 76.8617 984 93.324C980 109.786 944.5 112.456 958.5 145.825C972.5 179.194 1004.5 153.944 1002 141.486C999.5 129.028 988 129.473 988 118.685C988 103.144 1005 105.002 1015.5 95.5486C1020.4 91.141 1016 84.9806 1019 87.6501C1025 91.0993 1024.26 95.432 1015.5 107.227C1005.5 120.685 1045 124.914 1042 112.456C1039 99.9978 1033 99.9978 1034.5 82.2008C1036 64.4039 1047.95 68.6597 1052 64.4039C1057.5 58.6198 1051 51.0561 1054.5 53.7257C1058 56.3952 1066.5 63.0691 1060.5 72.4125C1054.5 81.7559 1073.5 94.2138 1083 80.4211C1092.5 66.6285 1071.5 56.8401 1076.5 58.6198C1094 63.514 1102 80.4211 1094.5 91.0993C1087 101.778 1086 118.685 1099 121.354C1112 124.024 1133 121.354 1136 99.9978C1139 78.6414 1126 91.5443 1108.5 67.0734C1091 42.6026 1128.5 33.2592 1136 27.9201C1143.5 22.581 1133 16.7969 1139 18.1317C1145 19.4665 1144 20.3563 1147 24.8056C1150 29.2548 1134.5 34.149 1144 46.6069C1153.5 59.0648 1173.5 53.7257 1179 40.8229C1184.5 27.9201 1164 18.5766 1163.5 14.1274C1163 9.67815 1170 -4.55943 1170 6.11876C1170 16.7969 1188 20.8013 1193 24.8056C1198 28.8099 1211.5 43.0475 1201.5 53.7257C1191.5 64.4039 1188.5 72.4125 1197 80.4211C1205.5 88.4298 1214.5 84.4255 1218 76.8617C1221.5 69.298 1210.5 65.2937 1218 67.0734C1230 71.0777 1248.5 91.9892 1231.5 102.667C1214.5 113.346 1217.5 139.151 1242 142.266C1261.6 144.757 1274.83 131.736 1279 124.914Z" fill="#E5B340"/>
</svg>
